<?xml version="1.0" encoding="UTF-8"?>
<svg id="Layer_1" data-name="Layer 1" xmlns="http://www.w3.org/2000/svg" viewBox="0 0 396 360">
  <defs>
    <style>
      .cls-1 {
        fill: #231f20;
      }
    </style>
  </defs>
  <g>
    <path class="cls-1" d="M81.65,169.24c28.44,0,51.65,23,51.65,51.65s-23.21,51.65-51.65,51.65-51.65-23.21-51.65-51.65,23-51.65,51.65-51.65ZM84.37,271.07c24.47,0,37.85-26.14,37.85-47.67,0-23.84-16.1-52.48-42.87-52.48-24.26,0-37.85,25.93-37.85,47.47,0,23.63,16.73,52.69,42.87,52.69Z"/>
    <path class="cls-1" d="M159.84,169.66c-3.55,1.25-5.23,5.23-5.23,8.78,0,1.05.21,2.3.42,3.35l23,71.3,19.87-65.24c-2.72-6.69-4.81-15.26-11.92-18.19h24.67c-3.55,1.25-5.23,5.23-5.23,8.57,0,1.25,0,2.3.42,3.55l23,71.3,21.96-71.93c.42-1.05.42-2.09.42-2.93,0-4.39-3.35-7.74-7.32-8.57h20.49c-5.85,1.46-10.25,5.44-11.92,11.5l-22.79,74.65,3.14,10.04c-2.93.63-6.27,3.35-7.95,6.06l-26.14-81.34-19.65,65.24,3.35,10.04c-3.35.84-6.27,2.72-8.15,6.06l-29.69-90.33c-1.67-4.81-4.6-9.83-9.41-11.92h24.67Z"/>
    <path class="cls-1" d="M276.92,272.12c6.06-1.88,10.25-6.27,10.25-12.96v-76.11c0-6.69-3.76-11.29-10.25-13.38h18.61l58.76,82.59v-69.63c0-6.69-4.18-11.08-10.25-12.96h21.95c-6.06,1.88-10.04,6.27-10.04,12.96v89.5l-67.33-94.72v81.76c0,6.9,4.39,11.08,10.45,12.96h-22.16Z"/>
  </g>
  <g>
    <path class="cls-1" d="M63.16,323.14h-20.36l-4.46,9.88h-2.76l16.15-35.1h2.56l16.15,35.1h-2.76l-4.51-9.88ZM62.2,320.98l-9.23-20.26-9.18,20.26h18.4Z"/>
    <path class="cls-1" d="M103.03,330.71v2.31h-24.22v-35.1h23.47v2.31h-20.91v13.84h18.71v2.26h-18.71v14.39h21.66Z"/>
    <path class="cls-1" d="M110.8,328.51l1.15-1.91c2.41,2.51,6.87,4.41,11.59,4.41,7.02,0,10.13-3.06,10.13-6.87,0-10.53-21.91-4.21-21.91-17.15,0-4.96,3.81-9.33,12.44-9.33,3.86,0,7.87,1.2,10.58,3.16l-.95,2.06c-2.91-2.01-6.47-2.96-9.63-2.96-6.82,0-9.88,3.16-9.88,7.02,0,10.53,21.91,4.31,21.91,17.05,0,4.96-3.96,9.28-12.64,9.28-5.22,0-10.23-1.96-12.79-4.76Z"/>
    <path class="cls-1" d="M153.13,300.22h-12.64v-2.31h27.83v2.31h-12.64v32.8h-2.56v-32.8Z"/>
    <path class="cls-1" d="M205.24,297.91v35.1h-2.56v-16.7h-23.47v16.7h-2.56v-35.1h2.56v16.15h23.47v-16.15h2.56Z"/>
    <path class="cls-1" d="M243.71,330.71v2.31h-24.22v-35.1h23.47v2.31h-20.91v13.84h18.71v2.26h-18.71v14.39h21.66Z"/>
    <path class="cls-1" d="M261.77,300.22h-12.64v-2.31h27.83v2.31h-12.64v32.8h-2.56v-32.8Z"/>
    <path class="cls-1" d="M285.29,297.91h2.56v35.1h-2.56v-35.1Z"/>
    <path class="cls-1" d="M298.73,315.47c0-10.23,7.77-17.8,18.2-17.8,4.96,0,9.43,1.6,12.49,4.86l-1.61,1.65c-3.01-2.96-6.67-4.16-10.78-4.16-8.98,0-15.75,6.62-15.75,15.45s6.77,15.44,15.75,15.44c4.11,0,7.77-1.25,10.78-4.21l1.61,1.65c-3.06,3.26-7.52,4.92-12.49,4.92-10.43,0-18.2-7.57-18.2-17.8Z"/>
    <path class="cls-1" d="M336.25,328.51l1.15-1.91c2.41,2.51,6.87,4.41,11.59,4.41,7.02,0,10.13-3.06,10.13-6.87,0-10.53-21.91-4.21-21.91-17.15,0-4.96,3.81-9.33,12.44-9.33,3.86,0,7.87,1.2,10.58,3.16l-.95,2.06c-2.91-2.01-6.47-2.96-9.63-2.96-6.82,0-9.88,3.16-9.88,7.02,0,10.53,21.91,4.31,21.91,17.05,0,4.96-3.96,9.28-12.64,9.28-5.22,0-10.23-1.96-12.79-4.76Z"/>
  </g>
  <g>
    <path class="cls-1" d="M314.94,67.13c-7.37,2.68-16.17,5.73-22.57,7.56-12.42,3.55-24.79,6.59-37.63,8.49-3.72.81-6.94,1.2-6.94,1.2,0,0-1.36-4.15-2.27-7.8-3.29-11.91-5.75-24.3-8.56-36.48-.33-2.67-3.78-4.8-5.27-1.74-.42.88-.58,1.94-.72,2.92-.46,4.33-2.56,8.06-4.24,12.25-2.17,5.12-6.45,12.52-9.43,16.52-.64.86-1.65,2.43-1.82,2.56,0,0-4.36-1.13-5.68-1.29-10.09-1.28-18.73-2.74-28.41.85-8.41,3.9-6.01,12.51,1.17,15.91,3.29,1.9,7.02,2.88,10.71,3.44.92.21,3.02.34,3.02.34,0,0-1.19,1.02-2.07,1.77-.21.18-.97.81-1.19.97-4.5,3.2-8.89,7.09-13.82,9.64-1.69.72-4.26-.56-5.45,1.15-.72,1.17.15,3.16,1.49,3.93,1.76,1.12,3.73.06,5.26-1,6.07-4.16,11.92-8.51,17.4-13.24,1.05-.85,3.97-2.91,3.97-2.91.82-.23,10.74-.26,16.23-1.06,4.85-.73,9.51-.72,14.41-1.48,3.19-.37,5.57.48,8.06,3.61,3.51,4.41,8.38,12.75,10.26,18.13,2.35,7.09,3.39,10.08,5.37,17.36.78,2.65.63,5.67,2.17,8.03,1.41,2.28,4.8.96,5.05-1.39-.1-2.92-1.89-5.62-2.39-8.54-2.61-10.33-6.5-20.7-9.89-30.95-.7-2.13-1.6-5.27-2.38-8.2,0,0,3.07-.59,3.47-.69,2.89-.73,3.97-.57,6.83-1.45,9.85-2.05,19.88-4.21,29.65-6.65,2.47-.66,28.15-7.41,27.85-10.86-.14-1.62-1.63-.9-1.63-.9ZM225.78,76.99s-1.39-.77-1.68-.88c-1.34-.52-1.63-.66-2.88-1.22-.82-.37-2.4-1-2.4-1,.99-1.32,4.11-5.81,5.76-8.38l.43-.74s5.8-10.43,7.56-15.86c.29-.89,1.08-1.85,1.55-.34,2.8,10.84,5.06,21.91,8.12,32.64.39,1.57.7,3.03.87,4.01l-1.66.09c-1.04.07-2.31.18-2.31.18-1.14-.96-3.45-2.48-4.81-3.48-1.4-1.1-5.38-3.29-5.38-3.29l-3.17-1.73ZM201.63,87.47s-3.87.2-6.24-.15c-4.5-.68-9.57-1.71-12.92-4.98-1.74-1.61-2.87-4.57-.48-6.11,2.56-1.91,5.9-2.3,9.27-2.47,6.85-.36,15.39.63,22.13,2.06,0,0-1.37,1.53-2.18,2.49-2.44,2.92-5.62,5.85-8.41,8.27l-1.18.89ZM224.66,86.98l-2.14.2c-4.76.19-9.62.48-14.36.44-.46,0-1.52.06-1.52.06,3.08-2.75,7.56-7.37,10.06-10.62.34-.45,4.9,1.55,6.58,2.6.36.23,1.74.86,2.1,1.1M225.37,80.75s5.62,2.71,8.27,5.31c-.27,0,0,0-.76.09-1.2.11-2.19.16-3.78.35l-4.45.48"/>
    <path class="cls-1" d="M229.04,80.12c2.59-35.46-27.85-63.64-62.59-49.8-44,16.39-48.38,91.67.31,104.49,32.83,7.65,61.08-23.22,62.27-54.35l.02-.34ZM223.99,90.33c-4.82,27.79-31.78,48.81-59.91,39.69-48.74-18.89-30.18-101.48,21.42-100.34,30.43.99,44.74,33.32,38.56,60.33l-.07.32Z"/>
  </g>
</svg>