<?xml version="1.0" encoding="UTF-8"?>
<svg id="Layer_1" data-name="Layer 1" xmlns="http://www.w3.org/2000/svg" viewBox="0 0 324 216">
  <path d="M303.45,84.3c-11.49,4.17-25.21,8.93-35.18,11.78-19.36,5.53-38.65,10.27-58.66,13.23-5.8,1.26-10.82,1.87-10.82,1.87,0,0-2.12-6.47-3.54-12.16-5.12-18.56-8.96-37.88-13.35-56.87-.51-4.17-5.89-7.48-8.21-2.71-.65,1.38-.91,3.02-1.13,4.55-.72,6.76-3.99,12.56-6.6,19.1-3.38,7.98-10.05,19.51-14.7,25.75-1.01,1.35-2.57,3.8-2.84,3.99,0,0-6.79-1.76-8.85-2.02-15.72-1.99-29.2-4.28-44.29,1.33-13.12,6.08-9.36,19.5,1.83,24.81,5.12,2.96,10.95,4.48,16.7,5.35,1.43.32,4.7.54,4.7.54,0,0-1.85,1.59-3.22,2.76-.32.27-1.52,1.27-1.86,1.51-7.01,4.99-13.86,11.05-21.55,15.02-2.63,1.13-6.65-.87-8.5,1.8-1.12,1.82.24,4.93,2.33,6.13,2.75,1.75,5.82.09,8.19-1.56,9.46-6.48,18.59-13.27,27.13-20.65,1.63-1.33,6.18-4.53,6.18-4.53,1.29-.35,16.74-.41,25.3-1.65,7.56-1.13,14.82-1.13,22.46-2.31,4.97-.57,8.68.75,12.56,5.63,5.48,6.87,13.07,19.88,15.99,28.27,3.66,11.06,5.28,15.72,8.37,27.06,1.21,4.13.99,8.84,3.38,12.51,2.19,3.56,7.49,1.5,7.87-2.16-.16-4.55-2.94-8.77-3.72-13.31-4.07-16.11-10.13-32.27-15.42-48.25-1.1-3.32-2.5-8.21-3.72-12.79,0,0,4.78-.92,5.42-1.08,4.5-1.13,6.19-.89,10.65-2.26,15.35-3.2,30.98-6.56,46.21-10.36,3.84-1.03,43.88-11.55,43.42-16.92-.22-2.53-2.54-1.4-2.54-1.4ZM164.46,99.66s-2.16-1.2-2.62-1.38c-2.08-.8-2.53-1.02-4.5-1.91-1.27-.57-3.74-1.55-3.74-1.55,1.55-2.05,6.41-9.05,8.98-13.07l.67-1.15s9.05-16.26,11.78-24.72c.45-1.38,1.69-2.88,2.42-.54,4.37,16.89,7.89,34.16,12.66,50.88.61,2.44,1.08,4.73,1.36,6.24l-2.59.15c-1.62.1-3.6.28-3.6.28-1.78-1.49-5.37-3.87-7.5-5.42-2.19-1.72-8.39-5.12-8.39-5.12l-4.93-2.7ZM126.82,116s-6.03.31-9.72-.24c-7.02-1.07-14.91-2.67-20.14-7.76-2.71-2.5-4.47-7.12-.75-9.53,3.99-2.98,9.19-3.58,14.45-3.86,10.68-.56,23.99.98,34.5,3.22,0,0-2.14,2.38-3.39,3.88-3.8,4.55-8.76,9.12-13.11,12.9l-1.83,1.38ZM162.72,115.24l-3.34.31c-7.42.29-15,.75-22.39.69-.72,0-2.37.09-2.37.09,4.8-4.28,11.79-11.49,15.68-16.56.54-.7,7.64,2.42,10.26,4.05.57.35,2.71,1.34,3.27,1.71M163.83,105.52s8.77,4.23,12.9,8.28c-.42,0,0,0-1.18.14-1.87.17-3.41.24-5.89.54l-6.94.75"/>
  <path d="M169.55,104.55c4.05-55.27-43.42-99.2-97.58-77.64C3.38,52.47-3.45,169.83,72.45,189.8c51.17,11.92,95.21-36.19,97.07-84.72l.03-.53ZM161.68,120.47c-7.51,43.33-49.54,76.1-93.4,61.87C-7.69,152.88,21.23,24.13,101.66,25.91c47.44,1.55,69.75,51.94,60.11,94.05l-.1.51Z"/>
</svg>